# xmcd CD database file
#
# Track frame offsets:
#	182
#	15770
#	28817
#	42527
#	59975
#	72275
#	87475
#	102192
#	116925
#	129875
#	149760
#	161572
#
# Disc length: 2337 seconds
#
# Revision: 2
# Processed by: cddbd v1.5.2PL0 Copyright (c) Steve Scherf et al.
# Submitted via: CDex 1.51
#
DISCID=b0091f0c
DTITLE=Tom Astor - Hallo Trucker
DYEAR=1900
DGENRE=
TTITLE0=Ich hau den Lukas
TTITLE1=Mein Auto kennt schonm den Heimweg
TTITLE2=Wer hat ein Herz das nie bricht
TTITLE3=Meine Antwort ist die groﬂe Autobahn
TTITLE4=Kopf hoch Mann
TTITLE5=Sie ist jung und ich ein Mann der viel erlebt
TTITLE6=Disco Western Rodeo
TTITLE7=Ich hab hunger auf ein Weib
TTITLE8=Ein richtiger Mann ist immer unterwegs
TTITLE9=Der Feigling des Jahrhunderts
TTITLE10=Tr‰nen auf Leder
TTITLE11=Mein Laster wartet schon
EXTD=
EXTT0=
EXTT1=
EXTT2=
EXTT3=
EXTT4=
EXTT5=
EXTT6=
EXTT7=
EXTT8=
EXTT9=
EXTT10=
EXTT11=
PLAYORDER=
